<mxfile host="65bd71144e">
    <diagram id="4CVq7DMiI_I_uGaGLiYr" name="Page-1">
        <mxGraphModel dx="683" dy="1566" grid="1" gridSize="10" guides="1" tooltips="1" connect="1" arrows="1" fold="1" page="1" pageScale="1" pageWidth="827" pageHeight="1169" background="none" math="0" shadow="0">
            <root>
                <mxCell id="0"/>
                <mxCell id="1" parent="0"/>
                <mxCell id="57" style="edgeStyle=none;html=1;entryX=0.5;entryY=0;entryDx=0;entryDy=0;strokeColor=#000000;" edge="1" parent="1" source="2" target="15">
                    <mxGeometry relative="1" as="geometry"/>
                </mxCell>
                <mxCell id="2" value="Inicialização" style="strokeWidth=2;html=1;shape=mxgraph.flowchart.start_1;whiteSpace=wrap;strokeColor=#000000;fillColor=#DEDEDE;fontColor=#000000;" parent="1" vertex="1">
                    <mxGeometry x="364" y="-1160" width="100" height="60" as="geometry"/>
                </mxCell>
                <mxCell id="10" style="edgeStyle=none;html=1;entryX=0.5;entryY=0;entryDx=0;entryDy=0;entryPerimeter=0;strokeColor=#000000;fillColor=#DEDEDE;fontColor=#000000;" parent="1" source="4" target="7" edge="1">
                    <mxGeometry relative="1" as="geometry"/>
                </mxCell>
                <mxCell id="4" value="Conexão ao wi-fi" style="rounded=1;whiteSpace=wrap;html=1;absoluteArcSize=1;arcSize=14;strokeWidth=2;shadow=0;glass=0;labelBackgroundColor=none;fontColor=#000000;strokeColor=#000000;fillColor=#DEDEDE;" parent="1" vertex="1">
                    <mxGeometry x="362.5" y="-680" width="100" height="60" as="geometry"/>
                </mxCell>
                <mxCell id="56" style="edgeStyle=none;html=1;entryX=0.5;entryY=0;entryDx=0;entryDy=0;exitX=0.5;exitY=1;exitDx=0;exitDy=0;strokeColor=#000000;" edge="1" parent="1" source="5" target="29">
                    <mxGeometry relative="1" as="geometry">
                        <Array as="points">
                            <mxPoint x="499" y="-420"/>
                            <mxPoint x="414" y="-420"/>
                        </Array>
                    </mxGeometry>
                </mxCell>
                <mxCell id="5" value="Conexão ao mqtt" style="rounded=1;whiteSpace=wrap;html=1;absoluteArcSize=1;arcSize=14;strokeWidth=2;shadow=0;glass=0;labelBackgroundColor=none;fontColor=#000000;strokeColor=#000000;fillColor=#DEDEDE;" parent="1" vertex="1">
                    <mxGeometry x="448.5" y="-500" width="100" height="60" as="geometry"/>
                </mxCell>
                <mxCell id="9" style="edgeStyle=none;html=1;entryX=0.5;entryY=0;entryDx=0;entryDy=0;exitX=0;exitY=0.5;exitDx=0;exitDy=0;exitPerimeter=0;strokeColor=#000000;fillColor=#DEDEDE;fontColor=#000000;" parent="1" source="7" target="8" edge="1">
                    <mxGeometry relative="1" as="geometry">
                        <mxPoint x="328.5" y="-550" as="targetPoint"/>
                        <Array as="points">
                            <mxPoint x="328.5" y="-550"/>
                        </Array>
                    </mxGeometry>
                </mxCell>
                <mxCell id="11" style="edgeStyle=none;html=1;entryX=0.5;entryY=0;entryDx=0;entryDy=0;exitX=1;exitY=0.5;exitDx=0;exitDy=0;exitPerimeter=0;strokeColor=#000000;fillColor=#DEDEDE;fontColor=#000000;" parent="1" source="7" target="5" edge="1">
                    <mxGeometry relative="1" as="geometry">
                        <Array as="points">
                            <mxPoint x="498.5" y="-550"/>
                        </Array>
                    </mxGeometry>
                </mxCell>
                <mxCell id="7" value="Wifi conectado?" style="strokeWidth=2;html=1;shape=mxgraph.flowchart.decision;whiteSpace=wrap;strokeColor=#000000;fillColor=#DEDEDE;fontColor=#000000;" parent="1" vertex="1">
                    <mxGeometry x="346.5" y="-600" width="132" height="100" as="geometry"/>
                </mxCell>
                <mxCell id="14" style="edgeStyle=none;html=1;entryX=0;entryY=0.5;entryDx=0;entryDy=0;exitX=0.5;exitY=1;exitDx=0;exitDy=0;strokeColor=#000000;fillColor=#DEDEDE;fontColor=#000000;" parent="1" source="8" target="4" edge="1">
                    <mxGeometry relative="1" as="geometry">
                        <Array as="points">
                            <mxPoint x="328.5" y="-420"/>
                            <mxPoint x="238.5" y="-420"/>
                            <mxPoint x="238.5" y="-650"/>
                        </Array>
                    </mxGeometry>
                </mxCell>
                <mxCell id="8" value="Led warning" style="rounded=1;whiteSpace=wrap;html=1;absoluteArcSize=1;arcSize=14;strokeWidth=2;strokeColor=#000000;fillColor=#DEDEDE;fontColor=#000000;" parent="1" vertex="1">
                    <mxGeometry x="278.5" y="-500" width="100" height="60" as="geometry"/>
                </mxCell>
                <mxCell id="12" value="Sim" style="text;html=1;strokeColor=none;fillColor=none;align=center;verticalAlign=middle;whiteSpace=wrap;rounded=0;fontColor=#000000;labelBackgroundColor=none;" parent="1" vertex="1">
                    <mxGeometry x="468.5" y="-580" width="60" height="30" as="geometry"/>
                </mxCell>
                <mxCell id="13" value="Não" style="text;html=1;strokeColor=none;fillColor=none;align=center;verticalAlign=middle;whiteSpace=wrap;rounded=0;fontColor=#000000;" parent="1" vertex="1">
                    <mxGeometry x="298.5" y="-580" width="60" height="30" as="geometry"/>
                </mxCell>
                <mxCell id="21" style="edgeStyle=none;html=1;entryX=0.5;entryY=0;entryDx=0;entryDy=0;strokeColor=#000000;fillColor=#DEDEDE;fontColor=#000000;" parent="1" source="15" target="17" edge="1">
                    <mxGeometry relative="1" as="geometry"/>
                </mxCell>
                <mxCell id="15" value="Leitura&lt;br&gt;Última posição&lt;br&gt;EEPROM" style="shape=parallelogram;html=1;strokeWidth=2;perimeter=parallelogramPerimeter;whiteSpace=wrap;rounded=1;arcSize=12;size=0.23;strokeColor=#000000;fillColor=#DEDEDE;fontColor=#000000;" parent="1" vertex="1">
                    <mxGeometry x="351.5" y="-1060" width="125" height="60" as="geometry"/>
                </mxCell>
                <mxCell id="20" style="edgeStyle=none;html=1;entryX=0.5;entryY=0;entryDx=0;entryDy=0;strokeColor=#000000;fillColor=#DEDEDE;fontColor=#000000;" parent="1" source="17" target="19" edge="1">
                    <mxGeometry relative="1" as="geometry"/>
                </mxCell>
                <mxCell id="17" value="Abrir persiana&lt;br&gt;até leitura do&lt;br&gt;reed switch" style="rounded=1;whiteSpace=wrap;html=1;absoluteArcSize=1;arcSize=14;strokeWidth=2;strokeColor=#000000;fillColor=#DEDEDE;fontColor=#000000;" parent="1" vertex="1">
                    <mxGeometry x="364" y="-980" width="100" height="70" as="geometry"/>
                </mxCell>
                <mxCell id="27" style="edgeStyle=none;html=1;strokeColor=#000000;fillColor=#DEDEDE;fontColor=#000000;" parent="1" source="19" target="25" edge="1">
                    <mxGeometry relative="1" as="geometry"/>
                </mxCell>
                <mxCell id="19" value="Determinação&lt;br&gt;posição zero" style="shape=parallelogram;html=1;strokeWidth=2;perimeter=parallelogramPerimeter;whiteSpace=wrap;rounded=1;arcSize=12;size=0.23;strokeColor=#000000;fillColor=#DEDEDE;fontColor=#000000;" parent="1" vertex="1">
                    <mxGeometry x="348" y="-890" width="132" height="60" as="geometry"/>
                </mxCell>
                <mxCell id="23" value="" style="strokeWidth=2;html=1;shape=mxgraph.flowchart.annotation_1;align=left;pointerEvents=1;flipH=1;strokeColor=#000000;fillColor=#DEDEDE;fontColor=#000000;" parent="1" vertex="1">
                    <mxGeometry x="589" y="-700" width="50" height="280" as="geometry"/>
                </mxCell>
                <mxCell id="24" value="" style="strokeWidth=2;html=1;shape=mxgraph.flowchart.annotation_1;align=left;pointerEvents=1;flipH=1;strokeColor=#000000;fillColor=#DEDEDE;fontColor=#000000;" parent="1" vertex="1">
                    <mxGeometry x="589" y="-1070" width="50" height="360" as="geometry"/>
                </mxCell>
                <mxCell id="58" style="edgeStyle=none;html=1;entryX=0.5;entryY=0;entryDx=0;entryDy=0;strokeColor=#000000;" edge="1" parent="1" source="25" target="4">
                    <mxGeometry relative="1" as="geometry"/>
                </mxCell>
                <mxCell id="25" value="Movimentar para&lt;br&gt;última posição&lt;br&gt;salva (EEPROM)" style="rounded=1;whiteSpace=wrap;html=1;absoluteArcSize=1;arcSize=14;strokeWidth=2;strokeColor=#000000;fillColor=#DEDEDE;fontColor=#000000;" parent="1" vertex="1">
                    <mxGeometry x="364" y="-810" width="100" height="70" as="geometry"/>
                </mxCell>
                <mxCell id="45" style="edgeStyle=none;html=1;entryX=0;entryY=0.5;entryDx=0;entryDy=0;strokeColor=#000000;fillColor=#DEDEDE;fontColor=#000000;" parent="1" source="28" target="29" edge="1">
                    <mxGeometry relative="1" as="geometry"/>
                </mxCell>
                <mxCell id="28" value="Requisição&lt;br&gt;de posição" style="html=1;strokeWidth=2;shape=manualInput;whiteSpace=wrap;rounded=1;size=26;arcSize=11;strokeColor=#000000;fillColor=#DEDEDE;fontColor=#000000;" parent="1" vertex="1">
                    <mxGeometry x="189" y="-390" width="100" height="80" as="geometry"/>
                </mxCell>
                <mxCell id="33" style="edgeStyle=none;html=1;entryX=0.5;entryY=0;entryDx=0;entryDy=0;entryPerimeter=0;strokeColor=#000000;fillColor=#DEDEDE;fontColor=#000000;" parent="1" source="29" target="32" edge="1">
                    <mxGeometry relative="1" as="geometry"/>
                </mxCell>
                <mxCell id="29" value="Receber dados&lt;br&gt;MQTT" style="rounded=1;whiteSpace=wrap;html=1;absoluteArcSize=1;arcSize=14;strokeWidth=2;strokeColor=#000000;fillColor=#DEDEDE;fontColor=#000000;" parent="1" vertex="1">
                    <mxGeometry x="364" y="-390" width="100" height="80" as="geometry"/>
                </mxCell>
                <mxCell id="35" style="edgeStyle=none;html=1;entryX=0.5;entryY=0;entryDx=0;entryDy=0;exitX=1;exitY=0.5;exitDx=0;exitDy=0;exitPerimeter=0;strokeColor=#000000;fillColor=#DEDEDE;fontColor=#000000;" parent="1" source="32" target="34" edge="1">
                    <mxGeometry relative="1" as="geometry">
                        <Array as="points">
                            <mxPoint x="498.5" y="-240"/>
                        </Array>
                    </mxGeometry>
                </mxCell>
                <mxCell id="38" style="edgeStyle=none;html=1;exitX=0;exitY=0.5;exitDx=0;exitDy=0;exitPerimeter=0;strokeColor=#000000;fillColor=#DEDEDE;fontColor=#000000;" parent="1" source="32" edge="1">
                    <mxGeometry relative="1" as="geometry">
                        <mxPoint x="412.5" y="-101" as="targetPoint"/>
                        <Array as="points">
                            <mxPoint x="319.5" y="-240"/>
                            <mxPoint x="319.5" y="-121"/>
                            <mxPoint x="412.5" y="-121"/>
                        </Array>
                    </mxGeometry>
                </mxCell>
                <mxCell id="32" value="Posição vertical&lt;br&gt;diferente?" style="strokeWidth=2;html=1;shape=mxgraph.flowchart.decision;whiteSpace=wrap;strokeColor=#000000;fillColor=#DEDEDE;fontColor=#000000;" parent="1" vertex="1">
                    <mxGeometry x="345.5" y="-290" width="132" height="100" as="geometry"/>
                </mxCell>
                <mxCell id="37" style="edgeStyle=none;html=1;entryX=0.5;entryY=0;entryDx=0;entryDy=0;entryPerimeter=0;exitX=0.5;exitY=1;exitDx=0;exitDy=0;strokeColor=#000000;fillColor=#DEDEDE;fontColor=#000000;" parent="1" source="34" target="36" edge="1">
                    <mxGeometry relative="1" as="geometry">
                        <Array as="points">
                            <mxPoint x="498.5" y="-121"/>
                            <mxPoint x="412.5" y="-121"/>
                        </Array>
                    </mxGeometry>
                </mxCell>
                <mxCell id="34" value="Movimento vertical" style="rounded=1;whiteSpace=wrap;html=1;absoluteArcSize=1;arcSize=14;strokeWidth=2;strokeColor=#000000;fillColor=#DEDEDE;fontColor=#000000;" parent="1" vertex="1">
                    <mxGeometry x="448.5" y="-190" width="100" height="50" as="geometry"/>
                </mxCell>
                <mxCell id="40" style="edgeStyle=none;html=1;entryX=0.5;entryY=0;entryDx=0;entryDy=0;exitX=1;exitY=0.5;exitDx=0;exitDy=0;exitPerimeter=0;strokeColor=#000000;fillColor=#DEDEDE;fontColor=#000000;" parent="1" source="36" target="39" edge="1">
                    <mxGeometry relative="1" as="geometry">
                        <Array as="points">
                            <mxPoint x="498.5" y="-51"/>
                        </Array>
                    </mxGeometry>
                </mxCell>
                <mxCell id="43" style="edgeStyle=none;html=1;entryX=0.5;entryY=0;entryDx=0;entryDy=0;exitX=0;exitY=0.5;exitDx=0;exitDy=0;exitPerimeter=0;strokeColor=#000000;fillColor=#DEDEDE;fontColor=#000000;" parent="1" source="36" target="41" edge="1">
                    <mxGeometry relative="1" as="geometry">
                        <mxPoint x="339.5" y="-21" as="sourcePoint"/>
                        <Array as="points">
                            <mxPoint x="319.5" y="-51"/>
                            <mxPoint x="319.5" y="69"/>
                            <mxPoint x="412.5" y="69"/>
                        </Array>
                    </mxGeometry>
                </mxCell>
                <mxCell id="36" value="Posição palhetas&lt;br&gt;diferente?" style="strokeWidth=2;html=1;shape=mxgraph.flowchart.decision;whiteSpace=wrap;strokeColor=#000000;fillColor=#DEDEDE;fontColor=#000000;" parent="1" vertex="1">
                    <mxGeometry x="346.5" y="-101" width="132" height="100" as="geometry"/>
                </mxCell>
                <mxCell id="42" style="edgeStyle=none;html=1;entryX=0.5;entryY=0;entryDx=0;entryDy=0;strokeColor=#000000;fillColor=#DEDEDE;fontColor=#000000;" parent="1" source="39" target="41" edge="1">
                    <mxGeometry relative="1" as="geometry">
                        <Array as="points">
                            <mxPoint x="498.5" y="69"/>
                            <mxPoint x="412.5" y="69"/>
                        </Array>
                    </mxGeometry>
                </mxCell>
                <mxCell id="39" value="Movimento das palhetas" style="rounded=1;whiteSpace=wrap;html=1;absoluteArcSize=1;arcSize=14;strokeWidth=2;strokeColor=#000000;fillColor=#DEDEDE;fontColor=#000000;" parent="1" vertex="1">
                    <mxGeometry x="448.5" y="-1" width="100" height="50" as="geometry"/>
                </mxCell>
                <mxCell id="44" style="edgeStyle=none;html=1;entryX=1;entryY=0.5;entryDx=0;entryDy=0;exitX=0.5;exitY=1;exitDx=0;exitDy=0;strokeColor=#000000;fillColor=#DEDEDE;fontColor=#000000;" parent="1" source="41" target="29" edge="1">
                    <mxGeometry relative="1" as="geometry">
                        <Array as="points">
                            <mxPoint x="412" y="170"/>
                            <mxPoint x="580" y="170"/>
                            <mxPoint x="580" y="-350"/>
                        </Array>
                    </mxGeometry>
                </mxCell>
                <mxCell id="41" value="Salvar posição&lt;br&gt;pós movimento&lt;br&gt;EEPROM" style="shape=parallelogram;html=1;strokeWidth=2;perimeter=parallelogramPerimeter;whiteSpace=wrap;rounded=1;arcSize=12;size=0.23;strokeColor=#000000;fillColor=#DEDEDE;fontColor=#000000;" parent="1" vertex="1">
                    <mxGeometry x="345.5" y="89" width="134" height="60" as="geometry"/>
                </mxCell>
                <mxCell id="46" value="" style="strokeWidth=2;html=1;shape=mxgraph.flowchart.annotation_1;align=left;pointerEvents=1;flipH=1;strokeColor=#000000;fillColor=#DEDEDE;fontColor=#000000;" parent="1" vertex="1">
                    <mxGeometry x="589" y="-411" width="50" height="591" as="geometry"/>
                </mxCell>
                <mxCell id="49" value="&lt;b&gt;Conexão à rede&lt;/b&gt;" style="text;html=1;strokeColor=none;fillColor=none;align=center;verticalAlign=middle;whiteSpace=wrap;rounded=0;fontColor=#000000;" parent="1" vertex="1">
                    <mxGeometry x="639" y="-580" width="60" height="30" as="geometry"/>
                </mxCell>
                <mxCell id="50" value="Auto configuração" style="text;html=1;strokeColor=none;fillColor=none;align=center;verticalAlign=middle;whiteSpace=wrap;rounded=0;fontStyle=1;fontColor=#000000;" parent="1" vertex="1">
                    <mxGeometry x="639" y="-905" width="81" height="30" as="geometry"/>
                </mxCell>
                <mxCell id="51" value="&lt;b&gt;Movimentação&lt;br&gt;segundo&lt;br&gt;requisições&lt;br&gt;&lt;/b&gt;" style="text;html=1;strokeColor=none;fillColor=none;align=center;verticalAlign=middle;whiteSpace=wrap;rounded=0;fontColor=#000000;" parent="1" vertex="1">
                    <mxGeometry x="639" y="-135.25" width="91" height="39.5" as="geometry"/>
                </mxCell>
                <mxCell id="52" value="Não" style="text;html=1;strokeColor=none;fillColor=none;align=center;verticalAlign=middle;whiteSpace=wrap;rounded=0;fontColor=#000000;" parent="1" vertex="1">
                    <mxGeometry x="297.5" y="-261" width="60" height="30" as="geometry"/>
                </mxCell>
                <mxCell id="53" value="Sim" style="text;html=1;strokeColor=none;fillColor=none;align=center;verticalAlign=middle;whiteSpace=wrap;rounded=0;fontColor=#000000;labelBackgroundColor=none;" parent="1" vertex="1">
                    <mxGeometry x="467.5" y="-261" width="60" height="30" as="geometry"/>
                </mxCell>
                <mxCell id="54" value="Não" style="text;html=1;strokeColor=none;fillColor=none;align=center;verticalAlign=middle;whiteSpace=wrap;rounded=0;fontColor=#000000;" parent="1" vertex="1">
                    <mxGeometry x="299" y="-71" width="60" height="30" as="geometry"/>
                </mxCell>
                <mxCell id="55" value="Sim" style="text;html=1;strokeColor=none;fillColor=none;align=center;verticalAlign=middle;whiteSpace=wrap;rounded=0;fontColor=#000000;labelBackgroundColor=none;" parent="1" vertex="1">
                    <mxGeometry x="469" y="-71" width="60" height="30" as="geometry"/>
                </mxCell>
            </root>
        </mxGraphModel>
    </diagram>
</mxfile>